# xmcd
#
# Track frame offsets:
#	150
#	16651
#	34016
#	47930
#	68546
#	87194
#	106723
#	121027
#	147020
#	168987
#	179863
#	200762
#	218905
#
# Disc length: 3185 seconds
#
# Revision: 1
# Processed by: cddbd v1.5.1PL0 Copyright (c) Steve Scherf et al.
# Submitted via: audiograbber 1.83.01
#
DISCID=ac0c6f0d
DTITLE=Alfred the Flowerman - What's New
DYEAR=2004
DGENRE=Blues
TTITLE0=What's New
TTITLE1=I Left My Heart in San Franscico
TTITLE2=This Masquerade
TTITLE3=I've Got You Under My Skin
TTITLE4=Straighten Up and Fly Right
TTITLE5=All of Me
TTITLE6=For Once in My Life
TTITLE7=The Shadow of Your Smile
TTITLE8=Misty
TTITLE9=I Only Have Eyes For You
TTITLE10=Summer Wind
TTITLE11=My Funny Valentine
TTITLE12=My Way
EXTD=
EXTT0=Johnny Burke/Bob Haggart
EXTT1=George Cory/Douglas Cross
EXTT2=Leon Russell
EXTT3=Cole Porter
EXTT4=Nat King Cole/ Irving Mills
EXTT5=Seymore Simmons/ Gerald Marks
EXTT6=Ron Millr/ Orlando Murden
EXTT7=Johnny Mandel/Paul Webster
EXTT8=Jonney Burke/ Erroll Garner
EXTT9=AL Dubin/ Harry Warren
EXTT10=Hans Bradtke/Johnny Mercer/ Henry Meyer
EXTT11=Lorenz Hart/ Richard Rogers
EXTT12=Gilles Thibaut/ Paul Anka
PLAYORDER=
